<svg width="177" height="48" viewBox="0 0 177 48" fill="none" xmlns="http://www.w3.org/2000/svg">
<path d="M40 0H8C3.58172 0 0 3.58172 0 8V40C0 44.4183 3.58172 48 8 48H40C44.4183 48 48 44.4183 48 40V8C48 3.58172 44.4183 0 40 0Z" fill="#0C0D0E"/>
<path fill-rule="evenodd" clip-rule="evenodd" d="M15.1945 8.78516C13.9043 8.78516 12.8584 9.83106 12.8584 11.1213V34.5822C12.8584 37.1626 14.9502 39.2544 17.5306 39.2544V13.4574H35.1412C35.1412 10.877 33.0494 8.78516 30.469 8.78516L15.2012 8.78517C15.1989 8.78516 15.1967 8.78516 15.1945 8.78516Z" fill="white"/>
<path fill-rule="evenodd" clip-rule="evenodd" d="M21.5645 17.5708V22.243H30.4697V27.1946H21.5645V31.8668V31.9068V39.2545C24.1449 39.2545 26.2367 37.1627 26.2367 34.5823V31.8668H30.4696C33.05 31.8668 35.1419 29.775 35.1419 27.1946H35.1013C35.1281 26.9921 35.1419 26.7854 35.1419 26.5755V20.7053C35.1419 19.5189 34.2574 18.539 33.1118 18.3891C32.3603 17.8729 31.4503 17.5708 30.4697 17.5708H21.5645Z" fill="url(#paint0_linear_279_37)"/>
<path d="M65.9176 32.5V15.0455H76.7415V17.3125H68.5511V22.6307H75.9659V24.8892H68.5511V32.5H65.9176ZM79.7756 32.5V19.4091H82.3239V32.5H79.7756ZM81.0625 17.3892C80.6193 17.3892 80.2386 17.2415 79.9205 16.946C79.608 16.6449 79.4517 16.2869 79.4517 15.8722C79.4517 15.4517 79.608 15.0937 79.9205 14.7983C80.2386 14.4972 80.6193 14.3466 81.0625 14.3466C81.5057 14.3466 81.8835 14.4972 82.196 14.7983C82.5142 15.0937 82.6733 15.4517 82.6733 15.8722C82.6733 16.2869 82.5142 16.6449 82.196 16.946C81.8835 17.2415 81.5057 17.3892 81.0625 17.3892ZM88.3004 15.0455V32.5H85.7521V15.0455H88.3004ZM97.8395 19.4091V21.4545H90.6889V19.4091H97.8395ZM92.6065 16.2727H95.1548V28.6562C95.1548 29.1506 95.2287 29.5227 95.3764 29.7727C95.5241 30.017 95.7145 30.1847 95.9474 30.2756C96.1861 30.3608 96.4446 30.4034 96.723 30.4034C96.9276 30.4034 97.1065 30.3892 97.2599 30.3608C97.4134 30.3324 97.5327 30.3097 97.6179 30.2926L98.0781 32.3977C97.9304 32.4545 97.7202 32.5114 97.4474 32.5682C97.1747 32.6307 96.8338 32.6648 96.4247 32.6705C95.7543 32.6818 95.1293 32.5625 94.5497 32.3125C93.9702 32.0625 93.5014 31.6761 93.1435 31.1534C92.7855 30.6307 92.6065 29.9744 92.6065 29.1847V16.2727ZM106.16 32.7642C104.87 32.7642 103.759 32.4886 102.827 31.9375C101.901 31.3807 101.185 30.5994 100.68 29.5938C100.18 28.5824 99.9297 27.3977 99.9297 26.0398C99.9297 24.6989 100.18 23.517 100.68 22.4943C101.185 21.4716 101.89 20.6733 102.793 20.0994C103.702 19.5256 104.765 19.2386 105.981 19.2386C106.719 19.2386 107.435 19.3608 108.129 19.6051C108.822 19.8494 109.444 20.233 109.995 20.7557C110.546 21.2784 110.981 21.9574 111.299 22.7926C111.617 23.6222 111.776 24.6307 111.776 25.8182V26.7216H101.37V24.8125H109.279C109.279 24.142 109.143 23.5483 108.87 23.0312C108.597 22.5085 108.214 22.0966 107.719 21.7955C107.231 21.4943 106.657 21.3438 105.998 21.3438C105.282 21.3438 104.657 21.5199 104.123 21.8722C103.594 22.2187 103.185 22.6733 102.896 23.2358C102.612 23.7926 102.469 24.3977 102.469 25.0511V26.5426C102.469 27.4176 102.623 28.1619 102.93 28.7756C103.242 29.3892 103.677 29.858 104.234 30.1818C104.79 30.5 105.441 30.6591 106.185 30.6591C106.668 30.6591 107.109 30.5909 107.506 30.4545C107.904 30.3125 108.248 30.1023 108.538 29.8239C108.827 29.5455 109.049 29.2017 109.202 28.7926L111.614 29.2273C111.421 29.9375 111.075 30.5597 110.575 31.0938C110.08 31.6222 109.458 32.0341 108.708 32.3295C107.964 32.6193 107.114 32.7642 106.16 32.7642ZM114.604 32.5V19.4091H117.067V21.4886H117.203C117.442 20.7841 117.862 20.2301 118.464 19.8267C119.072 19.4176 119.76 19.2131 120.527 19.2131C120.686 19.2131 120.874 19.2187 121.089 19.2301C121.311 19.2415 121.484 19.2557 121.609 19.2727V21.7102C121.507 21.6818 121.325 21.6506 121.064 21.6165C120.803 21.5767 120.541 21.5568 120.28 21.5568C119.678 21.5568 119.141 21.6847 118.669 21.9403C118.203 22.1903 117.834 22.5398 117.561 22.9886C117.288 23.4318 117.152 23.9375 117.152 24.5057V32.5H114.604ZM124.019 32.5V15.0455H130.241C131.599 15.0455 132.724 15.2926 133.616 15.7869C134.508 16.2812 135.175 16.9574 135.619 17.8153C136.062 18.6676 136.283 19.6278 136.283 20.696C136.283 21.7699 136.059 22.7358 135.61 23.5938C135.167 24.446 134.496 25.1222 133.599 25.6222C132.707 26.1165 131.585 26.3636 130.232 26.3636H125.954V24.1307H129.994C130.852 24.1307 131.548 23.983 132.082 23.6875C132.616 23.3864 133.008 22.9773 133.258 22.4602C133.508 21.9432 133.633 21.3551 133.633 20.696C133.633 20.0369 133.508 19.4517 133.258 18.9403C133.008 18.429 132.613 18.0284 132.073 17.7386C131.539 17.4489 130.835 17.304 129.96 17.304H126.653V32.5H124.019ZM139.166 32.5V19.4091H141.714V32.5H139.166ZM140.453 17.3892C140.01 17.3892 139.629 17.2415 139.311 16.946C138.999 16.6449 138.842 16.2869 138.842 15.8722C138.842 15.4517 138.999 15.0937 139.311 14.7983C139.629 14.4972 140.01 14.3466 140.453 14.3466C140.896 14.3466 141.274 14.4972 141.587 14.7983C141.905 15.0937 142.064 15.4517 142.064 15.8722C142.064 16.2869 141.905 16.6449 141.587 16.946C141.274 17.2415 140.896 17.3892 140.453 17.3892ZM147.154 19.4091L150.043 24.5057L152.958 19.4091H155.745L151.663 25.9545L155.779 32.5H152.992L150.043 27.608L147.103 32.5H144.308L148.381 25.9545L144.359 19.4091H147.154ZM163.488 32.7642C162.198 32.7642 161.087 32.4886 160.156 31.9375C159.229 31.3807 158.513 30.5994 158.008 29.5938C157.508 28.5824 157.258 27.3977 157.258 26.0398C157.258 24.6989 157.508 23.517 158.008 22.4943C158.513 21.4716 159.218 20.6733 160.121 20.0994C161.031 19.5256 162.093 19.2386 163.309 19.2386C164.048 19.2386 164.763 19.3608 165.457 19.6051C166.15 19.8494 166.772 20.233 167.323 20.7557C167.874 21.2784 168.309 21.9574 168.627 22.7926C168.945 23.6222 169.104 24.6307 169.104 25.8182V26.7216H158.698V24.8125H166.607C166.607 24.142 166.471 23.5483 166.198 23.0312C165.925 22.5085 165.542 22.0966 165.048 21.7955C164.559 21.4943 163.985 21.3438 163.326 21.3438C162.61 21.3438 161.985 21.5199 161.451 21.8722C160.923 22.2187 160.513 22.6733 160.224 23.2358C159.94 23.7926 159.798 24.3977 159.798 25.0511V26.5426C159.798 27.4176 159.951 28.1619 160.258 28.7756C160.57 29.3892 161.005 29.858 161.562 30.1818C162.119 30.5 162.769 30.6591 163.513 30.6591C163.996 30.6591 164.437 30.5909 164.835 30.4545C165.232 30.3125 165.576 30.1023 165.866 29.8239C166.156 29.5455 166.377 29.2017 166.531 28.7926L168.942 29.2273C168.749 29.9375 168.403 30.5597 167.903 31.0938C167.408 31.6222 166.786 32.0341 166.036 32.3295C165.292 32.6193 164.442 32.7642 163.488 32.7642ZM174.48 15.0455V32.5H171.932V15.0455H174.48Z" fill="white"/>
<defs>
<linearGradient id="paint0_linear_279_37" x1="25.3781" y1="28.4326" x2="-23.4426" y2="2.77132" gradientUnits="userSpaceOnUse">
<stop stop-color="#3DF2D2"/>
<stop offset="1"/>
</linearGradient>
</defs>
</svg>
